<?xml version="1.0" encoding="UTF-8" standalone="no"?>
<!DOCTYPE svg PUBLIC "-//W3C//DTD SVG 1.1//EN" "http://www.w3.org/Graphics/SVG/1.1/DTD/svg11.dtd">
<svg width="100%" height="100%" viewBox="0 0 244 68" version="1.1" xmlns="http://www.w3.org/2000/svg" xmlns:xlink="http://www.w3.org/1999/xlink" xml:space="preserve" xmlns:serif="http://www.serif.com/" style="fill-rule:evenodd;clip-rule:evenodd;stroke-linejoin:round;stroke-miterlimit:1.41421;">
    <g transform="matrix(0.0805761,0,0,0.0805761,-25.8728,-32.5855)">
        <path d="M1173.78,847.312C1173.33,846.146 1173.13,845.352 1172.74,844.667C1168.14,836.682 1163.52,828.71 1158.88,820.747C1158.57,820.226 1158.08,819.817 1157.67,819.356C1157.63,820.053 1157.33,820.859 1157.58,821.426C1161.15,829.634 1164.74,837.84 1168.52,845.954C1169.03,847.04 1170.52,847.8 1171.72,848.349C1172.15,848.548 1173.07,847.69 1173.78,847.312M1323.53,834.356L1323.53,834.282C1318.87,834.282 1314.2,834.258 1309.54,834.316C1309,834.324 1308.48,834.789 1307.95,835.041C1308.53,835.15 1309.1,835.277 1309.68,835.362C1314.11,836.037 1318.6,836.481 1322.95,837.499C1324.32,837.819 1325.34,839.674 1326.52,840.828C1324.99,841.266 1323.41,842.189 1321.93,842.043C1318.43,841.693 1315,840.786 1311.52,840.22C1310.79,840.102 1309.69,840.214 1309.26,840.681C1308.32,841.677 1311.94,847.733 1313.47,847.751C1319.1,847.811 1324.74,847.799 1330.37,847.805C1339.97,847.816 1339.9,847.8 1339.38,838.067C1339.23,835.383 1338.22,834.295 1335.6,834.337C1331.58,834.407 1327.56,834.356 1323.53,834.356M852.34,834.207C832.868,834.207 813.395,834.206 793.921,834.209C792.635,834.209 791.32,834.087 790.07,834.312C789.251,834.458 788.525,835.127 787.759,835.56C788.486,836.02 789.196,836.832 789.945,836.874C793.156,837.047 796.378,836.998 799.597,837.024C837.247,837.302 874.892,837.6 912.541,837.773C913.937,837.779 915.337,836.564 916.737,835.917C915.387,835.348 914.071,834.677 912.679,834.242C911.943,834.017 911.081,834.197 910.277,834.197C890.964,834.197 871.653,834.197 852.34,834.207M592.639,659.086C634.028,659.086 675.414,659.096 716.803,659.05C718.434,659.048 720.064,658.533 721.698,658.257C720.064,657.962 718.434,657.407 716.801,657.407C634.026,657.364 551.249,657.364 468.474,657.407C466.845,657.407 465.217,657.966 463.586,658.264C465.217,658.538 466.845,659.048 468.477,659.05C509.862,659.096 551.252,659.086 592.639,659.086M1429.63,838.124C1429.63,838.193 1429.63,838.262 1429.62,838.332C1425.29,838.332 1420.95,838.227 1416.62,838.378C1414.56,838.449 1412.48,838.849 1410.52,839.457C1409.98,839.622 1409.36,841.65 1409.6,841.855C1413.36,845.054 1415.95,849.863 1422.18,849.54C1427.75,849.252 1433.37,850.233 1438.97,850.256C1445.05,850.284 1451.14,849.914 1457.21,849.547C1458.05,849.498 1459.59,848.099 1459.51,847.934C1457.94,844.617 1456.37,841.261 1454.3,838.256C1453.91,837.696 1451.38,838.676 1449.82,838.849C1448.87,838.956 1447.9,838.925 1446.94,838.883C1441.17,838.64 1435.4,838.38 1429.63,838.124M1208.44,848.487L1208.44,848.548C1211.66,848.548 1214.88,848.73 1218.08,848.455C1219.24,848.355 1221.15,847.29 1221.27,846.459C1221.79,842.763 1224.38,842.838 1226.98,842.808C1232.76,842.738 1238.55,842.796 1244.34,842.654C1245.47,842.626 1247.15,842.272 1247.61,841.498C1249.46,838.352 1246.88,834.295 1243.1,834.235C1226.4,833.973 1209.69,833.736 1192.98,833.607C1191.35,833.592 1189.71,834.369 1188.08,834.779C1188.63,836.565 1188.75,838.668 1189.81,840.08C1193.8,845.436 1198.24,850.285 1206.03,848.51C1206.8,848.337 1207.64,848.487 1208.44,848.487M843.926,692.338L843.926,692.232C821.243,692.232 798.56,692.3 775.878,692.168C772,692.145 770.121,693.316 770.436,697.348C770.535,698.62 770.008,699.987 770.305,701.177C770.58,702.278 771.599,704.088 772.245,704.068C776.951,703.916 780.433,706.141 783.781,709.043C784.487,709.654 785.943,709.495 787.056,709.523C798.144,709.801 809.232,710.221 820.323,710.263C848.637,710.374 876.951,710.4 905.264,710.282C919.323,710.223 917.143,712.546 917.306,697.937C917.366,692.542 917.088,692.345 911.493,692.344C888.971,692.331 866.448,692.338 843.926,692.338M878.775,987.601L878.775,987.197C895.174,987.197 911.572,987.156 927.968,987.256C929.882,987.268 930.924,987.338 930.943,984.916C931.001,977.846 931.219,970.774 931.564,963.713C931.736,960.227 930.511,958.824 926.894,958.834C894.396,958.912 861.897,958.902 829.397,958.813C825.773,958.803 824.617,960.267 824.716,963.725C824.888,969.831 824.73,975.949 824.755,982.061C824.777,987.556 824.805,987.588 830.52,987.595C846.605,987.611 862.69,987.601 878.775,987.601M1077.13,848.608L1077.13,848.577C1099.99,848.577 1122.85,848.58 1145.7,848.576C1151.02,848.576 1156.33,848.51 1161.64,848.56C1164.68,848.589 1165.79,847.728 1164.38,844.543C1160.56,835.866 1157.04,827.057 1153.14,818.418C1152.6,817.213 1150.63,815.901 1149.32,815.908C1121.5,816.083 1093.68,816.468 1065.85,816.698C1063.33,816.72 1062.24,817.449 1062.48,819.964C1062.83,823.559 1060.54,825 1057.57,825.213C1054.55,825.43 1051.48,824.872 1048.44,824.919C1045.15,824.973 1043.64,823.488 1043.83,820.281C1044.05,816.79 1042.22,815.961 1039.08,815.984C1023.95,816.096 1008.82,816.167 993.69,816.01C989.766,815.968 988.64,817.52 988.729,821.153C988.905,828.07 988.783,834.994 988.81,841.916C988.834,848.582 988.85,848.602 995.525,848.603C1022.73,848.614 1049.93,848.608 1077.13,848.608M853.058,730.951L853.058,730.792C833.094,730.792 813.129,730.771 793.164,730.808C788.275,730.819 787.895,731.201 787.891,736.042C787.869,761.963 787.932,787.885 787.857,813.805C787.846,817.232 788.902,818.748 792.539,818.763C799.775,818.792 807.008,819.384 814.243,819.403C846.752,819.483 879.261,819.451 911.771,819.435C916.899,819.432 917.043,819.299 917.059,814.394C917.139,788.311 917.2,762.229 917.228,736.146C917.234,731.262 916.906,730.964 911.985,730.96C892.34,730.938 872.7,730.951 853.058,730.951M1539.8,1016.11C1515.81,1016.13 1148.49,1016.67 1021.92,1016.92C1017.8,1016.93 1013.45,1017.73 1011.29,1012.52C1010.91,1011.6 1008.49,1011.13 1007.01,1011.12C989.616,1011.03 972.222,1011.07 954.831,1011.05C952.582,1011.04 950.973,1011.5 949.798,1013.84C949.21,1015 947.055,1015.97 945.58,1016.01C938.017,1016.22 930.441,1016.22 922.878,1016.01C921.347,1015.97 919.245,1015.12 918.463,1013.94C916.871,1011.55 910.721,1011.05 909.916,1011.05C784.947,1011.05 659.975,1011.06 535.004,1011.02C531.344,1011.02 528.15,1011.19 525.649,1014.62C524.647,1015.99 522.051,1016.78 520.153,1016.83C512.111,1017.06 504.059,1016.97 496.012,1016.85C494.659,1016.83 493.155,1016.35 492.007,1015.62C490.328,1014.56 490.063,1012.92 491.958,1011.79C493.866,1010.66 495.919,1009.36 498.032,1009.08C501.083,1008.68 501.63,1007.16 501.626,1004.55C501.586,969.927 501.626,935.304 501.502,900.678C501.496,899.055 500.113,897.444 499.396,895.815C498.787,894.434 497.792,893.064 497.704,891.643C497.27,884.74 497.049,877.823 496.821,870.909C496.646,865.752 496.425,865.608 491.29,865.357C472.984,864.464 454.686,863.412 436.377,862.592C432.954,862.441 431.943,860.989 431.994,857.826C432.11,850.751 432.139,843.667 431.968,836.593C431.901,833.756 431.918,814.26 431.949,809.48C432.081,789.674 432.11,701.112 431.921,694.03C431.838,690.87 431.505,670.283 432.094,665.059C432.715,659.579 434.014,658.347 439.43,658.267C443.456,658.209 447.487,658.188 451.507,658.354C453.688,658.445 455.252,658.365 455.37,655.56C455.512,652.227 457.659,651.443 460.687,651.75C464.036,652.09 634.716,652.327 716.686,652.343C720.207,652.345 723.839,653.036 725.093,648.135C725.309,647.293 727.754,646.619 729.197,646.559C737.716,646.2 871.343,646.363 929.629,646.613C933.137,646.629 936.587,646.396 936.981,651.383C937.037,652.082 938.845,653.171 939.844,653.175C945.138,653.202 950.451,653.142 955.721,652.703C958.999,652.428 960.343,652.985 961.204,656.678C964.371,670.234 962.307,683.92 962.918,697.523C963.204,703.892 962.973,703.906 969.263,704.529C972.616,704.862 975.965,705.21 979.321,705.502C982.333,705.764 983.832,704.446 983.752,701.315C983.665,697.934 983.88,694.541 983.668,691.174C983.585,689.893 982.655,688.677 982.149,687.414C981.183,685.008 979.467,682.602 979.432,680.177C979.295,671.188 979.753,662.193 979.921,653.199C980.041,646.718 980.148,646.565 986.825,646.546C987.951,646.542 989.293,646.204 990.152,646.696C991.294,647.351 992.836,648.65 992.859,649.699C993.071,660.151 993.057,670.606 992.974,681.06C992.959,682.618 992.748,684.643 991.79,685.646C986.502,691.18 989.336,697.802 989.11,703.956C989.016,706.573 990.195,709.213 990.496,711.875C990.853,715.025 992.286,716.156 995.53,716.12C1009.7,715.97 1023.87,716.053 1038.05,716.072C1045.15,716.081 1046.83,717.727 1046.71,724.918C1046.65,729.095 1046.17,733.265 1046.1,737.442C1046.01,743.171 1046.08,743.376 1051.93,743.787C1057.22,744.161 1062.55,744.228 1067.85,744.039C1071.72,743.898 1073.38,745.204 1073.46,749.196C1073.54,753.841 1073.78,753.835 1078.12,752.266C1080.78,751.301 1083.44,749.73 1085.67,753.253C1086.06,753.866 1087.77,753.771 1088.87,753.777C1106.43,753.889 1123.98,753.989 1141.53,754.001C1142.85,754.003 1144.17,753.328 1145.49,752.965C1144.21,751.634 1144.91,741.744 1145.16,739.871C1146.33,730.903 1143.92,722.94 1138.91,715.32C1133.17,706.592 1128.15,697.373 1123.11,688.208C1121.86,685.932 1121.21,683.048 1121.17,680.428C1120.98,668.514 1121.19,656.596 1121.05,644.68C1121.01,642.038 1120.39,639.337 1119.61,636.787C1118.51,633.207 1120.65,631.877 1123.3,631.337C1128.97,630.187 1134.69,629.257 1140.43,628.537C1142.97,628.227 1145.01,627.827 1146.48,625.397C1147.09,624.377 1148.81,623.537 1150.07,623.487C1154.89,623.267 1159.72,623.367 1164.55,623.437C1165.3,623.447 1166.51,623.697 1166.73,624.187C1169.6,630.677 1187.18,629.637 1190.44,630.417C1194.53,631.387 1194.94,632.817 1193.53,636.957C1193.03,638.437 1192.95,640.107 1192.96,641.69C1193.08,653.923 1193.53,666.159 1193.28,678.38C1193.2,682.202 1191.93,686.329 1190.1,689.721C1183.99,701.052 1177.3,712.07 1171.04,723.321C1170.03,725.139 1169.84,727.516 1169.65,729.668C1169.24,734.458 1169.04,739.268 1168.85,744.073C1168.82,744.943 1169.25,745.827 1169.47,746.704C1169.96,745.83 1170.93,744.913 1170.86,744.078C1170.21,735.458 1175.75,732.395 1182.57,729.428C1188.07,727.033 1193.41,725.922 1199.32,725.944C1234.1,726.079 1268.89,725.99 1303.67,726.088C1315.1,726.118 1326.52,726.578 1337.95,726.628C1341.28,726.642 1343.19,727.803 1343.58,731.101C1344.03,734.829 1346.3,735.541 1349.67,735.565C1388.31,735.827 1426.95,736.2 1465.59,736.556C1471.05,736.608 1476.51,736.735 1481.97,736.813C1484.67,736.85 1486.24,738.305 1486.54,740.863C1486.99,744.839 1487.57,807.238 1487.62,819.793C1487.62,821.08 1487.67,822.375 1487.56,823.655C1486.74,832.815 1485.61,833.902 1476.55,834.282C1467.54,834.663 1467.4,834.845 1469.49,843.259C1471.22,850.196 1471.22,850.311 1478.29,850.334C1499.39,850.404 1520.48,850.364 1541.58,850.391C1547.24,850.4 1548.32,851.542 1548.24,857.167C1547.93,880.13 1547.57,903.09 1547.32,926.053C1547.02,953.901 1546.83,981.75 1546.58,1009.6C1546.52,1015.58 1546.03,1016.1 1539.8,1016.11" style="fill:rgb(87,86,86);fill-rule:nonzero;"/>
    </g>
    <g transform="matrix(8.33333,0,0,8.33333,-3172.41,-368.751)">
        <g>
            <path d="M394.344,46.998C394.285,46.966 394.232,46.95 394.185,46.95C394.138,46.95 394.098,46.967 394.064,47.001C394.031,47.035 394.014,47.075 394.014,47.123C394.014,47.157 394.024,47.193 394.044,47.231C394.063,47.27 394.108,47.331 394.178,47.415C394.248,47.499 394.302,47.572 394.338,47.634C394.375,47.696 394.394,47.767 394.394,47.847C394.394,47.947 394.364,48.028 394.304,48.09C394.244,48.152 394.165,48.183 394.068,48.183C394.014,48.183 393.949,48.167 393.872,48.136L393.872,47.974C393.874,47.975 393.876,47.976 393.878,47.977C393.889,47.985 393.911,47.997 393.945,48.013C393.978,48.029 394.011,48.037 394.044,48.037C394.096,48.037 394.14,48.019 394.174,47.984C394.208,47.949 394.225,47.904 394.225,47.849C394.225,47.811 394.216,47.776 394.199,47.743C394.182,47.711 394.151,47.667 394.105,47.612L393.984,47.463C393.936,47.405 393.902,47.352 393.879,47.305C393.857,47.257 393.845,47.2 393.845,47.134C393.845,47.036 393.874,46.957 393.931,46.895C393.988,46.834 394.062,46.804 394.152,46.804C394.216,46.804 394.28,46.819 394.344,46.851L394.344,46.998Z" style="fill:rgb(152,195,60);fill-rule:nonzero;"/>
            <path d="M394.593,46.825L394.89,46.825C395.082,46.825 395.179,46.952 395.179,47.205C395.179,47.307 395.161,47.386 395.127,47.444C395.093,47.502 395.051,47.539 395,47.554C394.949,47.569 394.874,47.577 394.775,47.579L394.775,48.168L394.593,48.168L394.593,46.825ZM394.775,47.439C394.851,47.439 394.906,47.423 394.939,47.392C394.972,47.361 394.989,47.299 394.989,47.205C394.989,47.111 394.974,47.047 394.945,47.014C394.917,46.98 394.86,46.963 394.775,46.963L394.775,47.439Z" style="fill:rgb(152,195,60);fill-rule:nonzero;"/>
            <path d="M395.984,48.168L395.797,48.168L395.586,47.538L395.57,47.538L395.57,48.168L395.388,48.168L395.388,46.825L395.639,46.825C395.844,46.825 395.946,46.939 395.946,47.169C395.946,47.273 395.931,47.351 395.901,47.404C395.871,47.456 395.822,47.496 395.753,47.523L395.984,48.168ZM395.57,47.414C395.64,47.413 395.691,47.396 395.722,47.364C395.753,47.332 395.769,47.274 395.769,47.19C395.769,47.109 395.755,47.051 395.726,47.017C395.698,46.982 395.649,46.965 395.58,46.965L395.57,46.965L395.57,47.414Z" style="fill:rgb(152,195,60);fill-rule:nonzero;"/>
            <rect x="396.208" y="46.825" width="0.181" height="1.344" style="fill:rgb(152,195,60);fill-rule:nonzero;"/>
            <path d="M397.189,46.979L396.983,46.979L396.983,48.168L396.802,48.168L396.802,46.979L396.597,46.979L396.597,46.825L397.189,46.825L397.189,46.979Z" style="fill:rgb(152,195,60);fill-rule:nonzero;"/>
            <path d="M397.958,46.825L397.53,48.018L397.916,48.018L397.916,48.168L397.31,48.168L397.735,46.979L397.362,46.979L397.362,46.825L397.958,46.825Z" style="fill:rgb(152,195,60);fill-rule:nonzero;"/>
            <path d="M398.849,47.693C398.849,47.847 398.822,47.967 398.77,48.053C398.717,48.138 398.624,48.181 398.49,48.181C398.371,48.181 398.284,48.137 398.231,48.049C398.177,47.96 398.151,47.791 398.151,47.54C398.151,47.51 398.154,47.432 398.16,47.304C398.166,47.176 398.176,47.09 398.188,47.045C398.2,46.999 398.221,46.957 398.25,46.918C398.279,46.879 398.315,46.85 398.359,46.831C398.404,46.811 398.456,46.802 398.516,46.802C398.6,46.802 398.673,46.827 398.734,46.878C398.795,46.929 398.829,46.996 398.835,47.08L398.664,47.142C398.65,47.013 398.601,46.948 398.516,46.948C398.45,46.948 398.405,46.982 398.379,47.049C398.353,47.116 398.34,47.227 398.34,47.383L398.34,47.451C398.34,47.541 398.343,47.627 398.349,47.709C398.355,47.791 398.36,47.851 398.365,47.889C398.37,47.927 398.38,47.957 398.395,47.98C398.411,48.002 398.427,48.017 398.444,48.025C398.462,48.033 398.482,48.037 398.505,48.037C398.549,48.037 398.582,48.023 398.606,47.996C398.63,47.97 398.647,47.931 398.656,47.881C398.665,47.831 398.67,47.745 398.67,47.624L398.505,47.624L398.505,47.466L398.849,47.466L398.849,47.693Z" style="fill:rgb(152,195,60);fill-rule:nonzero;"/>
            <path d="M399.703,47.851C399.703,48.075 399.603,48.187 399.401,48.187C399.181,48.187 399.07,48.076 399.07,47.853L399.07,46.827L399.25,46.827L399.25,47.777C399.25,47.879 399.258,47.95 399.276,47.989C399.294,48.028 399.332,48.047 399.391,48.047C399.45,48.047 399.487,48.027 399.502,47.985C399.516,47.944 399.524,47.871 399.524,47.767L399.524,46.827L399.703,46.827L399.703,47.851Z" style="fill:rgb(152,195,60);fill-rule:nonzero;"/>
            <path d="M400.406,46.998C400.346,46.966 400.293,46.95 400.246,46.95C400.199,46.95 400.159,46.967 400.126,47.001C400.092,47.035 400.075,47.075 400.075,47.123C400.075,47.157 400.085,47.193 400.105,47.231C400.125,47.27 400.169,47.331 400.239,47.415C400.309,47.499 400.363,47.572 400.4,47.634C400.437,47.696 400.455,47.767 400.455,47.847C400.455,47.947 400.425,48.028 400.365,48.09C400.305,48.152 400.226,48.183 400.129,48.183C400.076,48.183 400.01,48.167 399.933,48.136L399.933,47.974C399.935,47.975 399.937,47.976 399.939,47.977C399.95,47.985 399.972,47.997 400.006,48.013C400.04,48.029 400.073,48.037 400.105,48.037C400.158,48.037 400.201,48.019 400.235,47.984C400.269,47.949 400.286,47.904 400.286,47.849C400.286,47.811 400.278,47.776 400.261,47.743C400.243,47.711 400.212,47.667 400.166,47.612L400.045,47.463C399.998,47.405 399.963,47.352 399.94,47.305C399.918,47.257 399.907,47.2 399.907,47.134C399.907,47.036 399.935,46.957 399.992,46.895C400.049,46.834 400.123,46.804 400.214,46.804C400.277,46.804 400.341,46.819 400.406,46.851L400.406,46.998Z" style="fill:rgb(152,195,60);fill-rule:nonzero;"/>
            <path d="M401.104,46.998C401.045,46.966 400.992,46.95 400.944,46.95C400.897,46.95 400.857,46.967 400.824,47.001C400.79,47.035 400.774,47.075 400.774,47.123C400.774,47.157 400.783,47.193 400.803,47.231C400.823,47.27 400.868,47.331 400.938,47.415C401.008,47.499 401.061,47.572 401.098,47.634C401.135,47.696 401.153,47.767 401.153,47.847C401.153,47.947 401.123,48.028 401.063,48.09C401.003,48.152 400.924,48.183 400.827,48.183C400.774,48.183 400.709,48.167 400.631,48.136L400.631,47.974C400.633,47.975 400.635,47.976 400.638,47.977C400.648,47.985 400.67,47.997 400.704,48.013C400.738,48.029 400.771,48.037 400.803,48.037C400.856,48.037 400.899,48.019 400.933,47.984C400.968,47.949 400.985,47.904 400.985,47.849C400.985,47.811 400.976,47.776 400.959,47.743C400.942,47.711 400.91,47.667 400.864,47.612L400.743,47.463C400.696,47.405 400.661,47.352 400.639,47.305C400.616,47.257 400.605,47.2 400.605,47.134C400.605,47.036 400.633,46.957 400.69,46.895C400.747,46.834 400.821,46.804 400.912,46.804C400.975,46.804 401.039,46.819 401.104,46.851L401.104,46.998Z" style="fill:rgb(152,195,60);fill-rule:nonzero;"/>
            <path d="M402.266,48.168L402.098,48.168L402.031,47.309L402.027,47.309L401.843,48.168L401.73,48.168L401.556,47.309L401.551,47.309L401.48,48.168L401.312,48.168L401.443,46.825L401.599,46.825L401.787,47.767L401.791,47.767L401.983,46.825L402.139,46.825L402.266,48.168Z" style="fill:rgb(152,195,60);fill-rule:nonzero;"/>
            <path d="M403.152,48.168L402.977,48.168L402.927,47.903L402.644,47.903L402.594,48.168L402.421,48.168L402.711,46.825L402.86,46.825L403.152,48.168ZM402.903,47.767L402.786,47.13L402.782,47.13L402.67,47.767L402.903,47.767Z" style="fill:rgb(152,195,60);fill-rule:nonzero;"/>
            <path d="M403.804,46.998C403.745,46.966 403.692,46.95 403.644,46.95C403.597,46.95 403.557,46.967 403.524,47.001C403.49,47.035 403.474,47.075 403.474,47.123C403.474,47.157 403.483,47.193 403.503,47.231C403.523,47.27 403.568,47.331 403.638,47.415C403.708,47.499 403.761,47.572 403.798,47.634C403.835,47.696 403.853,47.767 403.853,47.847C403.853,47.947 403.823,48.028 403.763,48.09C403.703,48.152 403.624,48.183 403.527,48.183C403.474,48.183 403.409,48.167 403.331,48.136L403.331,47.974C403.333,47.975 403.335,47.976 403.338,47.977C403.348,47.985 403.37,47.997 403.404,48.013C403.438,48.029 403.471,48.037 403.503,48.037C403.556,48.037 403.599,48.019 403.633,47.984C403.668,47.949 403.685,47.904 403.685,47.849C403.685,47.811 403.676,47.776 403.659,47.743C403.642,47.711 403.61,47.667 403.564,47.612L403.443,47.463C403.396,47.405 403.361,47.352 403.339,47.305C403.316,47.257 403.305,47.2 403.305,47.134C403.305,47.036 403.333,46.957 403.39,46.895C403.447,46.834 403.521,46.804 403.612,46.804C403.675,46.804 403.739,46.819 403.804,46.851L403.804,46.998Z" style="fill:rgb(152,195,60);fill-rule:nonzero;"/>
            <path d="M404.619,48.144C404.565,48.17 404.511,48.183 404.457,48.183C404.348,48.183 404.255,48.141 404.176,48.058C404.096,47.974 404.057,47.799 404.057,47.533C404.057,47.245 404.096,47.051 404.176,46.951C404.255,46.851 404.35,46.802 404.463,46.802C404.505,46.802 404.557,46.809 404.619,46.823L404.619,46.987C404.578,46.971 404.54,46.963 404.504,46.963C404.434,46.963 404.374,46.999 404.324,47.07C404.274,47.141 404.249,47.282 404.249,47.492C404.249,47.617 404.254,47.715 404.265,47.786C404.276,47.857 404.301,47.913 404.341,47.955C404.38,47.997 404.43,48.018 404.489,48.018C404.524,48.018 404.568,48.007 404.619,47.985L404.619,48.144Z" style="fill:rgb(152,195,60);fill-rule:nonzero;"/>
            <path d="M404.852,46.825L405.034,46.825L405.034,47.348L405.313,47.348L405.313,46.825L405.494,46.825L405.494,48.168L405.313,48.168L405.313,47.501L405.034,47.501L405.034,48.168L404.852,48.168L404.852,46.825Z" style="fill:rgb(152,195,60);fill-rule:nonzero;"/>
            <rect x="405.779" y="46.825" width="0.181" height="1.344" style="fill:rgb(152,195,60);fill-rule:nonzero;"/>
            <path d="M406.882,48.168L406.74,48.168L406.397,47.247L406.393,47.247L406.393,48.168L406.231,48.168L406.231,46.825L406.375,46.825L406.719,47.748L406.723,47.748L406.723,46.825L406.882,46.825L406.882,48.168Z" style="fill:rgb(152,195,60);fill-rule:nonzero;"/>
            <path d="M407.634,48.168L407.148,48.168L407.148,46.825L407.626,46.825L407.626,46.979L407.327,46.979L407.327,47.404L407.604,47.404L407.604,47.557L407.327,47.557L407.327,48.02L407.634,48.02L407.634,48.168Z" style="fill:rgb(152,195,60);fill-rule:nonzero;"/>
            <path d="M408.481,48.168L408.339,48.168L407.996,47.247L407.992,47.247L407.992,48.168L407.829,48.168L407.829,46.825L407.974,46.825L408.318,47.748L408.322,47.748L408.322,46.825L408.481,46.825L408.481,48.168Z" style="fill:rgb(152,195,60);fill-rule:nonzero;"/>
            <path d="M393.906,48.745L394.087,48.745L394.087,49.268L394.366,49.268L394.366,48.745L394.548,48.745L394.548,50.088L394.366,50.088L394.366,49.421L394.087,49.421L394.087,50.088L393.906,50.088L393.906,48.745Z" style="fill:rgb(152,195,60);fill-rule:nonzero;"/>
            <path d="M395.494,50.088L395.319,50.088L395.269,49.823L394.986,49.823L394.936,50.088L394.763,50.088L395.053,48.745L395.202,48.745L395.494,50.088ZM395.245,49.687L395.128,49.05L395.124,49.05L395.012,49.687L395.245,49.687Z" style="fill:rgb(152,195,60);fill-rule:nonzero;"/>
            <path d="M396.342,50.088L396.199,50.088L395.857,49.167L395.852,49.167L395.852,50.088L395.69,50.088L395.69,48.745L395.835,48.745L396.178,49.668L396.183,49.668L396.183,48.745L396.342,48.745L396.342,50.088Z" style="fill:rgb(152,195,60);fill-rule:nonzero;"/>
            <path d="M396.614,48.745L396.876,48.745C396.999,48.745 397.097,48.791 397.168,48.884C397.24,48.978 397.275,49.153 397.275,49.41C397.275,49.658 397.244,49.834 397.181,49.935C397.119,50.037 397.006,50.088 396.844,50.088L396.614,50.088L396.614,48.745ZM396.795,48.883L396.795,49.952C396.871,49.952 396.929,49.938 396.968,49.91C397.008,49.882 397.037,49.83 397.056,49.753C397.076,49.676 397.085,49.561 397.085,49.408C397.085,49.213 397.067,49.076 397.031,48.999C396.995,48.922 396.924,48.883 396.82,48.883L396.795,48.883Z" style="fill:rgb(152,195,60);fill-rule:nonzero;"/>
            <path d="M397.995,50.088L397.508,50.088L397.508,48.745L397.986,48.745L397.986,48.899L397.688,48.899L397.688,49.324L397.964,49.324L397.964,49.477L397.688,49.477L397.688,49.94L397.995,49.94L397.995,50.088Z" style="fill:rgb(152,195,60);fill-rule:nonzero;"/>
            <path d="M398.689,50.088L398.202,50.088L398.202,48.745L398.384,48.745L398.384,49.938L398.689,49.938L398.689,50.088Z" style="fill:rgb(152,195,60);fill-rule:nonzero;"/>
        </g>
    </g>
</svg>
